<?xml version="1.0" standalone="no"?>
<!DOCTYPE svg PUBLIC "-//W3C//DTD SVG 20010904//EN"
 "http://www.w3.org/TR/2001/REC-SVG-20010904/DTD/svg10.dtd">
<svg version="1.0" xmlns="http://www.w3.org/2000/svg"
 width="512.000000pt"  height="512.000000pt" viewBox="0 0 512.000000 512.000000"
 preserveAspectRatio="xMidYMid meet">

<g transform="translate(0.000000,512.000000) scale(0.100000,-0.100000)"
fill="#000000" stroke="none">
<path d="M2526 5104 c-190 -46 -350 -203 -401 -394 -19 -71 -19 -200 0 -273
49 -189 203 -343 392 -392 73 -19 202 -19 273 0 269 71 444 338 402 611 -18
115 -69 213 -156 300 -138 138 -325 193 -510 148z"/>
<path d="M2215 3881 c-78 -20 -132 -65 -173 -147 -16 -33 -175 -367 -352 -744
-203 -431 -324 -700 -327 -725 -3 -29 2 -53 19 -85 20 -39 34 -50 100 -83 86
-42 130 -53 182 -43 69 13 89 42 261 385 l164 326 0 -316 1 -316 -270 -846
c-149 -465 -273 -866 -276 -890 -14 -104 56 -223 157 -266 29 -13 83 -25 124
-28 59 -5 79 -2 120 16 68 30 110 65 139 114 14 23 138 395 276 826 137 432
252 787 255 789 2 3 9 -6 14 -19 5 -13 47 -118 94 -234 145 -357 151 -385 212
-961 25 -236 51 -446 57 -468 7 -21 31 -60 55 -86 55 -61 119 -86 199 -76 178
21 297 144 296 305 -1 88 -127 1043 -152 1152 -30 132 -70 244 -175 484 l-95
219 0 129 0 129 173 -177 c147 -151 178 -178 212 -185 59 -13 110 4 166 57 83
78 107 157 71 235 -9 20 -134 166 -277 323 -143 158 -272 308 -287 333 -35 60
-36 68 -49 441 -11 353 -15 368 -86 412 l-38 24 -380 2 c-209 1 -393 -2 -410
-6z"/>
</g>
</svg>
