<?xml version="1.0" standalone="no"?>
<!DOCTYPE svg PUBLIC "-//W3C//DTD SVG 20010904//EN"
 "http://www.w3.org/TR/2001/REC-SVG-20010904/DTD/svg10.dtd">
<svg version="1.0" xmlns="http://www.w3.org/2000/svg"
 width="512.000000pt" height="512.000000pt" viewBox="0 0 512.000000 512.000000"
 preserveAspectRatio="xMidYMid meet">

<g transform="translate(0.000000,512.000000) scale(0.100000,-0.100000)"
fill="#000000" stroke="none">
<path d="M3933 5015 c-193 -52 -357 -225 -393 -414 -48 -256 98 -508 348 -598
189 -69 399 -18 548 133 204 208 202 528 -5 735 -134 134 -327 190 -498 144z"/>
<path d="M2175 4226 c-16 -7 -220 -194 -453 -415 -489 -466 -477 -450 -477
-601 0 -85 3 -100 27 -141 68 -116 192 -174 318 -148 30 6 74 22 97 35 24 14
168 158 344 344 l302 320 99 0 c55 0 98 -4 96 -8 -1 -5 -302 -342 -666 -750
l-664 -741 -456 -3 c-449 -3 -458 -4 -513 -26 -65 -26 -140 -87 -175 -144 -35
-54 -57 -151 -51 -215 12 -111 91 -228 187 -278 83 -42 132 -45 784 -45 573 0
624 1 653 18 17 9 171 167 343 350 171 183 315 332 319 330 4 -2 126 -126 269
-277 210 -219 261 -277 257 -295 -3 -11 -41 -255 -86 -541 -65 -416 -80 -534
-76 -587 16 -191 184 -332 375 -315 78 8 179 55 226 107 71 79 75 97 225 900
78 415 141 762 141 770 0 8 -171 186 -380 395 l-380 380 293 293 292 292 215
-216 c255 -255 275 -269 400 -269 73 0 92 4 135 27 36 19 169 146 466 445 389
390 418 422 438 476 27 73 27 131 0 204 -25 65 -94 145 -151 174 -87 44 -210
43 -288 -3 -19 -12 -150 -136 -292 -276 -200 -199 -262 -254 -282 -254 -29 0
-20 -9 -405 347 -300 277 -348 316 -410 337 -56 18 -1055 23 -1096 4z"/>
</g>
</svg>
