<?xml version="1.0" standalone="no"?>
<!DOCTYPE svg PUBLIC "-//W3C//DTD SVG 20010904//EN"
 "http://www.w3.org/TR/2001/REC-SVG-20010904/DTD/svg10.dtd">
<svg version="1.0" xmlns="http://www.w3.org/2000/svg"
 width="512.000000pt" height="512.000000pt" viewBox="0 0 512.000000 512.000000"
 preserveAspectRatio="xMidYMid meet">

<g transform="translate(0.000000,512.000000) scale(0.100000,-0.100000)"
fill="#000000" stroke="none">
<path d="M3227 5066 c-64 -24 -104 -62 -135 -129 -16 -34 -152 -398 -303 -809
l-274 -748 -50 -16 c-59 -20 -186 -81 -270 -132 -301 -180 -529 -489 -595
-806 -10 -47 -15 -56 -33 -56 -12 0 -267 27 -567 61 -329 37 -563 58 -589 55
-104 -14 -205 -87 -252 -182 l-24 -49 0 -990 0 -990 24 -49 c33 -66 91 -122
160 -155 74 -34 191 -36 263 -4 66 30 133 95 165 162 l28 56 3 752 2 753 29 0
c15 0 250 -25 521 -55 l493 -55 1196 -712 c658 -392 1270 -756 1360 -810 218
-129 295 -145 424 -85 114 53 180 152 185 284 4 71 1 88 -23 141 -15 33 -45
78 -68 100 -25 25 -281 183 -645 400 l-604 359 -254 692 -254 691 23 48 c12
26 22 48 23 50 1 2 24 -19 50 -45 27 -27 76 -62 109 -78 l60 -30 220 0 220 0
60 29 c75 37 159 120 190 188 112 247 -35 525 -302 568 -75 13 -261 13 -337 0
-136 -22 -258 -120 -312 -248 -1 -1 -31 27 -67 63 l-66 66 265 722 c257 698
266 724 262 783 -7 121 -96 211 -215 220 -35 3 -72 -1 -96 -10z m162 -93 c51
-38 73 -83 68 -138 -3 -32 -95 -298 -259 -743 -140 -381 -257 -694 -259 -696
-2 -3 -29 2 -59 10 -37 10 -90 14 -161 12 l-105 -3 88 240 c49 132 173 469
275 749 118 321 197 521 212 539 14 16 39 36 56 43 39 18 110 12 144 -13z
m472 -1605 c121 -55 180 -142 187 -273 3 -65 0 -91 -18 -137 -26 -69 -86 -134
-155 -168 -47 -23 -62 -25 -234 -28 -214 -4 -253 5 -333 77 -76 68 -101 127
-102 236 -1 104 18 156 84 224 80 82 153 102 365 97 136 -2 156 -5 206 -28z
m-1361 -101 c-343 -172 -586 -450 -685 -782 -30 -102 -64 -145 -115 -145 -36
0 -36 3 -10 101 99 380 402 695 815 848 115 43 114 38 -5 -22z m466 -413 c19
-9 43 -28 53 -43 11 -15 139 -353 286 -751 290 -790 287 -777 237 -847 -58
-82 -194 -84 -250 -6 -29 42 -552 1473 -552 1512 0 108 125 183 226 135z
m-105 -730 c75 -203 134 -371 133 -373 -4 -4 -512 296 -532 314 -10 9 -10 30
-3 97 11 94 39 162 92 222 36 41 147 118 163 113 6 -2 72 -170 147 -373z
m-2445 246 c-73 -67 -89 -119 -94 -295 -3 -106 -8 -156 -18 -170 -21 -29 -20
-278 1 -295 12 -10 15 -105 17 -658 l3 -647 24 -52 c13 -29 43 -71 67 -93 l45
-41 -38 6 c-91 16 -156 67 -194 150 -18 38 -19 92 -19 991 l0 950 28 54 c33
65 84 108 149 126 73 19 76 17 29 -26z"/>
</g>
</svg>
