<?xml version="1.0" standalone="no"?>
<!DOCTYPE svg PUBLIC "-//W3C//DTD SVG 20010904//EN"
 "http://www.w3.org/TR/2001/REC-SVG-20010904/DTD/svg10.dtd">
<svg version="1.0" xmlns="http://www.w3.org/2000/svg"
 width="512.000000pt" height="512.000000pt" viewBox="0 0 512.000000 512.000000"
 preserveAspectRatio="xMidYMid meet">

<g transform="translate(0.000000,512.000000) scale(0.100000,-0.100000)"
fill="#000000" stroke="none">
<path d="M3453 5109 c-517 -86 -885 -830 -1007 -2033 l-21 -209 -517 -183
-518 -183 -47 51 c-172 185 -454 225 -728 103 -166 -73 -327 -223 -423 -395
-126 -224 -136 -500 -27 -695 69 -123 201 -223 341 -259 79 -21 216 -20 306 0
297 68 549 303 646 604 23 72 45 215 40 264 l-3 31 415 97 c228 53 420 97 426
98 6 0 -20 -183 -70 -484 l-81 -485 -34 -6 c-79 -15 -209 -71 -291 -126 -310
-208 -469 -587 -379 -904 22 -76 72 -160 136 -226 236 -245 651 -218 955 61
128 117 226 280 268 444 25 97 27 255 5 341 -39 152 -154 300 -280 360 -33 16
-61 30 -63 31 -2 1 63 236 144 521 80 285 151 532 156 550 4 17 15 34 24 37 8
3 100 20 202 36 919 149 1583 432 1854 789 90 120 135 236 145 375 l6 88 -44
-7 c-160 -27 -962 -317 -1754 -635 -71 -29 -160 -63 -198 -76 l-67 -23 6 27
c4 15 37 122 75 237 321 996 509 1645 509 1763 0 36 -7 38 -107 21z m-644
-2238 c90 -64 91 -179 1 -239 -29 -20 -44 -23 -88 -20 -103 9 -161 109 -116
204 19 41 33 52 81 70 44 15 87 10 122 -15z m-1769 -367 c151 -45 240 -164
248 -334 5 -106 -13 -184 -70 -300 -57 -117 -187 -248 -303 -307 -106 -53
-163 -68 -265 -68 -109 1 -186 33 -258 109 -69 73 -96 145 -96 261 -2 328 306
651 625 654 36 1 89 -6 119 -15z m1412 -1302 c58 -25 122 -83 155 -140 147
-251 -42 -671 -362 -805 -90 -38 -140 -49 -224 -49 -148 0 -267 75 -327 205
-27 57 -29 71 -28 172 1 152 35 248 140 385 163 216 450 319 646 232z"/>
</g>
</svg>
