<?xml version='1.0' encoding='utf-8'?>
<svg xmlns="http://www.w3.org/2000/svg" version="1.1" id="Layer_1" x="0px" y="0px" width="5356.929px" height="5014.997px" viewBox="0 0 5356.929 5014.997" enable-background="new 0 0 5356.929 5014.997"> <path fill="#A8DAE9" d="M290.145,2449.14c0-1263.906,1024.717-2288.599,2288.747-2288.599 c1264.091,0,2288.76,1024.692,2288.76,2288.599c0,1264.061-1024.669,2288.753-2288.76,2288.753 C1314.861,4737.893,290.145,3713.201,290.145,2449.14z"/> <path fill="#92C4D6" d="M4867.655,2449.14L2729.206,925.663l467.874,1160.085l-415.126-415.133L1382.833,3781.169l1100.23,954.307 c31.825,1.3,63.706,2.417,95.832,2.417C3842.982,4737.893,4867.655,3713.201,4867.655,2449.14z"/> <g> <g> <path fill="#F3705B" d="M4035.47,2049.879c-30.163-18.321-64.172-29.587-100.802-29.587H1531.117 c-48.45,0-92.635,18.767-128.694,49.462l1218.765,932.779l4.479,1.378l-4.479,2.706l106.813,81.754l108.353-85.838l-4.288-2.729 l4.288-1.257L4035.47,2049.879z"/> <path fill="#F3705B" d="M1402.42,2073.796c0,0,1164.511-1126.884,1335.501-1126.884c171.067,0,1297.553,1106.98,1297.553,1106.98 L1402.42,2073.796z"/> <g> <rect x="1902.078" y="1754.727" fill="#FFFFFF" width="1693.751" height="1976.052"/> <rect x="2021.764" y="1926.044" fill="#FFD066" width="1454.308" height="88.405"/> <rect x="2021.764" y="2330.974" fill="#FFD066" width="1454.308" height="88.361"/> <rect x="2021.764" y="2128.514" fill="#FFD066" width="1454.308" height="88.392"/> <rect x="2021.764" y="2533.434" fill="#FFD066" width="1454.308" height="88.33"/> <rect x="2021.764" y="2722.71" fill="#FFD066" width="1454.308" height="88.405"/> <rect x="2021.764" y="2925.208" fill="#FFD066" width="1454.308" height="88.324"/> </g> <g> <polygon fill="#66BBC9" points="2552.84,2954.231 2516.121,2926.082 2552.634,2954.069 "/> <path fill="#F7BA1D" d="M2552.84,2954.231l-0.206-0.162l-36.513-27.987l-341.892-261.549l-771.806-590.736 c-52.401,44.762-86.959,115.382-86.959,195.616v1334.569c0,69.935,26.069,132.551,67.376,177.189l959.125-599.928 l279.224-174.621L2552.84,2954.231z"/> <path fill="#F7BA1D" d="M4035.47,2053.896l-896.785,709.585l0,0l-189.621,150.074l-96.624,76.366l-16.093,12.608l339.785,216.432 l897.269,571.412c46.706-44.951,77.001-111.282,77.001-186.395V2269.41C4150.401,2175.595,4103.489,2095.09,4035.47,2053.896z"/> <path fill="#E4A33A" d="M3176.14,3218.964l-339.786-216.432l16.093-12.608c-0.985,0.634-89.633,55.635-133.589,55.635 c-43.792,0-165.248-90.684-166.014-91.328l68.352,52.386l-279.224,174.62l-959.128,599.93 c38.526,41.851,90.697,67.938,148.284,67.938h2403.549c53.16,0,101.081-22.629,138.735-58.735L3176.14,3218.964z"/> </g> </g> </g> </svg>